<svg width="22" height="22" viewBox="0 0 22 22" fill="none" xmlns="http://www.w3.org/2000/svg">
<path d="M15.6 19.3992C15.5928 19.7188 15.6495 20.0367 15.7668 20.334C15.8841 20.6314 16.0596 20.9024 16.283 21.131C16.5065 21.3596 16.7734 21.5413 17.068 21.6654C17.3626 21.7894 17.6791 21.8534 17.9988 21.8535C18.3185 21.8536 18.635 21.7898 18.9297 21.6659C19.2243 21.5419 19.4913 21.3604 19.7149 21.1319C19.9385 20.9034 20.1141 20.6325 20.2316 20.3352C20.349 20.0378 20.4059 19.72 20.3988 19.4004C20.3849 18.7733 20.1261 18.1766 19.6778 17.738C19.2295 17.2993 18.6272 17.0536 18 17.0535C17.3728 17.0533 16.7704 17.2987 16.3218 17.7371C15.8733 18.1756 15.6142 18.7722 15.6 19.3992ZM3.6 19.3992C3.6 20.0357 3.85286 20.6462 4.30294 21.0963C4.75303 21.5464 5.36348 21.7992 6 21.7992C6.63652 21.7992 7.24697 21.5464 7.69706 21.0963C8.14714 20.6462 8.4 20.0357 8.4 19.3992C8.4 18.7627 8.14714 18.1523 7.69706 17.7022C7.24697 17.2521 6.63652 16.9992 6 16.9992C5.36348 16.9992 4.75303 17.2521 4.30294 17.7022C3.85286 18.1523 3.6 18.7627 3.6 19.3992ZM7.8564 13.6056L21.138 9.81122C21.2679 9.76791 21.3815 9.68622 21.464 9.57696C21.5465 9.4677 21.5939 9.33599 21.6 9.19922V2.59922H4.8V0.679219C4.8 0.415219 4.5828 0.199219 4.3212 0.199219H0.4788C0.351802 0.199852 0.230203 0.250664 0.140513 0.340579C0.0508232 0.430494 0.00031513 0.552219 0 0.679219L0 2.59922H2.4L4.692 13.3476L4.8 14.4792V16.458C4.8 16.7208 5.016 16.938 5.28 16.938H21.12C21.384 16.938 21.6 16.7196 21.6 16.458V14.5992H8.1024C6.7224 14.5992 6.6936 13.938 7.8564 13.6056Z" fill="#ADADAD"/>
</svg>
