<svg width="20" height="13" viewBox="0 0 20 13" fill="none" xmlns="http://www.w3.org/2000/svg">
<path d="M0 0.924346C0 0.679194 0.105357 0.444084 0.292893 0.270735C0.48043 0.0973864 0.734784 0 1 0H19C19.2652 0 19.5196 0.0973864 19.7071 0.270735C19.8946 0.444084 20 0.679194 20 0.924346C20 1.1695 19.8946 1.40461 19.7071 1.57796C19.5196 1.75131 19.2652 1.84869 19 1.84869H1C0.734784 1.84869 0.48043 1.75131 0.292893 1.57796C0.105357 1.40461 0 1.1695 0 0.924346Z" fill="#F29100"/>
<path d="M0 6.50052C0 6.25537 0.105357 6.02026 0.292893 5.84691C0.48043 5.67356 0.734784 5.57617 1 5.57617H19C19.2652 5.57617 19.5196 5.67356 19.7071 5.84691C19.8946 6.02026 20 6.25537 20 6.50052C20 6.74567 19.8946 6.98078 19.7071 7.15413C19.5196 7.32748 19.2652 7.42486 19 7.42486H1C0.734784 7.42486 0.48043 7.32748 0.292893 7.15413C0.105357 6.98078 0 6.74567 0 6.50052Z" fill="#F29100"/>
<path d="M1 11.1514C0.734784 11.1514 0.48043 11.2488 0.292893 11.4221C0.105357 11.5955 0 11.8306 0 12.0757C0 12.3209 0.105357 12.556 0.292893 12.7293C0.48043 12.9027 0.734784 13.0001 1 13.0001H19C19.2652 13.0001 19.5196 12.9027 19.7071 12.7293C19.8946 12.556 20 12.3209 20 12.0757C20 11.8306 19.8946 11.5955 19.7071 11.4221C19.5196 11.2488 19.2652 11.1514 19 11.1514H1Z" fill="#F29100"/>
</svg>
