<svg width="21" height="20" viewBox="0 0 21 20" fill="none" xmlns="http://www.w3.org/2000/svg">
<path d="M19.743 10.3302L10.743 0.330172C10.364 -0.0918281 9.63598 -0.0918281 9.25698 0.330172L0.256984 10.3302C0.12744 10.4738 0.0424085 10.6519 0.0122281 10.8429C-0.0179524 11.034 0.00801875 11.2296 0.0869837 11.4062C0.246984 11.7672 0.604984 11.9992 0.999984 11.9992H2.99998V18.9992C2.99998 19.2644 3.10534 19.5187 3.29288 19.7063C3.48041 19.8938 3.73477 19.9992 3.99998 19.9992H6.99998C7.2652 19.9992 7.51955 19.8938 7.70709 19.7063C7.89463 19.5187 7.99998 19.2644 7.99998 18.9992V14.9992H12V18.9992C12 19.2644 12.1053 19.5187 12.2929 19.7063C12.4804 19.8938 12.7348 19.9992 13 19.9992H16C16.2652 19.9992 16.5196 19.8938 16.7071 19.7063C16.8946 19.5187 17 19.2644 17 18.9992V11.9992H19C19.1937 12 19.3834 11.9445 19.546 11.8393C19.7087 11.7342 19.8372 11.584 19.916 11.4071C19.9947 11.2301 20.0203 11.0341 19.9896 10.8429C19.9589 10.6517 19.8732 10.4735 19.743 10.3302Z" fill="#ADADAD"/>
</svg>
