<svg width="24" height="24" viewBox="0 0 24 24" fill="none" xmlns="http://www.w3.org/2000/svg">
<path d="M20 20.5H4C2.9 20.5 2 19.6 2 18.5V8.05C2 7.4 2.3 6.8 2.85 6.4L12 0L21.15 6.4C21.7 6.75 22 7.4 22 8.05V18.5C22 19.6 21.1 20.5 20 20.5Z" fill="#3E4044"/>
<path d="M6 5.5H18V16.5H6V5.5Z" fill="white"/>
<path d="M20 20.5H4C2.9 20.5 2 19.6 2 18.5V8.5L12 15L22 8.5V18.5C22 19.6 21.1 20.5 20 20.5Z" fill="#3E4044"/>
<path d="M11 7H13V13H11V7Z" fill="#3E4044"/>
<path d="M9 9H15V11H9V9Z" fill="#3E4044"/>
</svg>
