<svg width="24" height="23" viewBox="0 0 24 23" fill="none" xmlns="http://www.w3.org/2000/svg">
<path d="M9.33333 16.5281V13.2225H0V8.81501H9.33333V5.50938L16 11.0188L9.33333 16.5281ZM9.33333 0H21.3333C22.0406 0 22.7189 0.23218 23.219 0.645464C23.719 1.05875 24 1.61928 24 2.20375V19.8338C24 20.4183 23.719 20.9788 23.219 21.3921C22.7189 21.8054 22.0406 22.0375 21.3333 22.0375H9.33333C8.62609 22.0375 7.94781 21.8054 7.44772 21.3921C6.94762 20.9788 6.66667 20.4183 6.66667 19.8338V17.63H9.33333V19.8338H21.3333V2.20375H9.33333V4.40751H6.66667V2.20375C6.66667 1.61928 6.94762 1.05875 7.44772 0.645464C7.94781 0.23218 8.62609 0 9.33333 0Z" fill="#F29100"/>
</svg>
