<svg width="24" height="25" viewBox="0 0 24 25" fill="none" xmlns="http://www.w3.org/2000/svg">
<path d="M6.7919 7.65991V7.65988C6.7919 5.69682 7.25183 4.08545 8.17108 2.8252C9.08999 1.56542 10.366 0.935547 12 0.935547C13.634 0.935547 14.91 1.56542 15.8289 2.8252C16.7482 4.08545 17.2081 5.69682 17.2081 7.65988V7.65991C17.2195 10.0986 16.4701 12.0309 14.9605 13.4578L14.9604 13.4579C14.7651 13.6504 14.6965 13.8972 14.7537 14.1971L14.7535 14.1971L14.7543 14.1988L15.1463 15.0559C15.1463 15.0559 15.1463 15.0559 15.1463 15.0559C15.2718 15.3429 15.4574 15.5673 15.7031 15.7289C15.9482 15.8902 16.4632 16.1196 17.2472 16.4172L17.2474 16.4173C17.2816 16.4292 18.0004 16.6732 19.4037 17.1494C20.1054 17.3875 20.643 17.572 21.0166 17.703C21.2034 17.7684 21.3491 17.8205 21.4538 17.8592C21.5588 17.8979 21.6219 17.923 21.6441 17.9347L21.6446 17.9349C22.5984 18.3512 23.2215 18.7848 23.5158 19.235C23.6742 19.6088 23.7934 20.2697 23.8729 21.2186C23.9523 22.166 23.9921 23.3998 23.9922 24.9199H0.00781285C0.00794861 23.3998 0.0477195 22.166 0.127103 21.2186C0.206602 20.2697 0.325773 19.6088 0.484194 19.235C0.778501 18.7848 1.40157 18.3512 2.3554 17.9349L2.35541 17.9349L2.3559 17.9347C2.37807 17.923 2.44125 17.8979 2.54621 17.8592C2.65091 17.8205 2.79663 17.7684 2.98341 17.703C3.35695 17.572 3.89456 17.3875 4.59626 17.1494C5.99963 16.6732 6.71844 16.4292 6.75258 16.4173L6.75277 16.4172C7.53675 16.1196 8.05176 15.8902 8.29691 15.7289C8.54256 15.5673 8.72816 15.3429 8.85372 15.0559C8.85373 15.0559 8.85374 15.0559 8.85375 15.0559L9.24574 14.1988L9.24595 14.1989L9.24631 14.1971C9.30355 13.8972 9.23486 13.6504 9.03958 13.4579L9.03946 13.4578C7.52994 12.0309 6.78055 10.0986 6.7919 7.65991ZM8.16477 2.82059C7.24432 4.0825 6.78409 5.69559 6.78409 7.65988L14.7614 14.1956C14.7045 13.898 14.7727 13.6539 14.9659 13.4634C16.4773 12.0349 17.2273 10.1004 17.2159 7.65988C17.2159 5.69559 16.7557 4.0825 15.8352 2.82059C14.9148 1.55869 13.6364 0.927734 12 0.927734C10.3636 0.927734 9.08523 1.55869 8.16477 2.82059Z" fill="black" stroke="black" stroke-width="0.015625"/>
</svg>
