<svg width="24" height="24" viewBox="0 0 24 24" fill="none" xmlns="http://www.w3.org/2000/svg">
<path d="M6.7919 6.73218V6.73214C6.7919 4.76908 7.25183 3.15772 8.17108 1.89746C9.08999 0.637683 10.366 0.0078125 12 0.0078125C13.634 0.0078125 14.91 0.637683 15.8289 1.89746C16.7482 3.15772 17.2081 4.76908 17.2081 6.73214V6.73218C17.2195 9.1709 16.4701 11.1032 14.9605 12.53L14.9604 12.5302C14.7651 12.7227 14.6965 12.9695 14.7537 13.2693L14.7535 13.2694L14.7543 13.2711L15.1463 14.1281C15.1463 14.1282 15.1463 14.1282 15.1463 14.1282C15.2718 14.4152 15.4574 14.6396 15.7031 14.8012C15.9482 14.9624 16.4632 15.1919 17.2472 15.4894L17.2474 15.4895C17.2816 15.5014 18.0004 15.7455 19.4037 16.2217C20.1054 16.4598 20.643 16.6443 21.0166 16.7752C21.2034 16.8407 21.3491 16.8928 21.4538 16.9314C21.5588 16.9702 21.6219 16.9953 21.6441 17.0069L21.6446 17.0072C22.5984 17.4235 23.2215 17.8571 23.5158 18.3073C23.6742 18.6811 23.7934 19.342 23.8729 20.2908C23.9523 21.2383 23.9921 22.4721 23.9922 23.9922H0.00781285C0.00794861 22.4721 0.0477195 21.2383 0.127103 20.2908C0.206602 19.342 0.325773 18.6811 0.484194 18.3073C0.778501 17.8571 1.40157 17.4235 2.3554 17.0072L2.35541 17.0072L2.3559 17.0069C2.37807 16.9953 2.44125 16.9702 2.54621 16.9314C2.65091 16.8928 2.79663 16.8407 2.98341 16.7752C3.35695 16.6443 3.89456 16.4598 4.59626 16.2217C5.99963 15.7455 6.71844 15.5014 6.75258 15.4895L6.75277 15.4894C7.53675 15.1919 8.05176 14.9624 8.29691 14.8012C8.54256 14.6396 8.72816 14.4152 8.85372 14.1282C8.85373 14.1282 8.85374 14.1282 8.85375 14.1281L9.24574 13.2711L9.24595 13.2712L9.24631 13.2693C9.30355 12.9695 9.23486 12.7227 9.03958 12.5301L9.03946 12.53C7.52994 11.1032 6.78055 9.1709 6.7919 6.73218ZM8.16477 1.89286C7.24432 3.15476 6.78409 4.76786 6.78409 6.73214L14.7614 13.2679C14.7045 12.9702 14.7727 12.7262 14.9659 12.5357C16.4773 11.1071 17.2273 9.17262 17.2159 6.73214C17.2159 4.76786 16.7557 3.15476 15.8352 1.89286C14.9148 0.630952 13.6364 0 12 0C10.3636 0 9.08523 0.630952 8.16477 1.89286Z" fill="#3E4044" stroke="#3E4044" stroke-width="0.015625"/>
</svg>
