<svg width="24" height="25" viewBox="0 0 24 25" fill="none" xmlns="http://www.w3.org/2000/svg">
<path d="M18.969 0.154021C18.8108 0.157917 18.6536 0.179042 18.5 0.21702L2.25 4.49698C1.60769 4.66704 1.03926 5.0439 0.632576 5.56934C0.225888 6.09478 0.00357716 6.73953 0 7.40396V21.1538C0 22.7988 1.355 24.1538 3 24.1538H21C22.645 24.1538 24 22.7988 24 21.1538V8.15395C24 6.50896 22.645 5.15398 21 5.15398H7.625L19 2.154V4.15399H21V2.154C21 1.02901 20.043 0.138021 18.969 0.154021ZM3 7.15396H21C21.566 7.15396 22 7.58795 22 8.15395V21.1538C22 21.7198 21.566 22.1538 21 22.1538H3C2.434 22.1538 2 21.7198 2 21.1538V8.15395C2 7.58795 2.434 7.15396 3 7.15396ZM18.5 13.1539C18.1022 13.1539 17.7206 13.3119 17.4393 13.5932C17.158 13.8745 17 14.2561 17 14.6539C17 15.0517 17.158 15.4332 17.4393 15.7145C17.7206 15.9958 18.1022 16.1539 18.5 16.1539C18.8978 16.1539 19.2794 15.9958 19.5607 15.7145C19.842 15.4332 20 15.0517 20 14.6539C20 14.2561 19.842 13.8745 19.5607 13.5932C19.2794 13.3119 18.8978 13.1539 18.5 13.1539Z" fill="black"/>
</svg>
